<svg width="148" height="30" viewBox="0 0 148 30" fill="none" xmlns="http://www.w3.org/2000/svg">
<g clip-path="url(#clip0_199_253)">
<path d="M105.836 16.2328V15.8219H107.064C107.371 15.8219 107.781 15 107.781 15C107.781 15 114.331 0.205444 114.536 0.205444C114.741 0.205444 121.189 15 121.189 15C121.189 15 121.599 15.8219 122.52 15.8219H123.441V16.2328H116.993V15.8219H117.402C117.709 15.8219 117.709 15 117.709 15C117.709 15 113.717 5.34243 113.512 5.34243C113.308 5.34243 109.828 15 109.828 15C109.828 15 109.623 15.8219 110.647 15.8219H111.67V16.2328H105.836Z" fill="white" stroke="white"/>
<path fill-rule="evenodd" clip-rule="evenodd" d="M84.9552 0.616456V0.821909H86.2858C87.1047 0.821909 87.1047 1.74657 87.1047 1.74657V14.7945C87.1047 14.7945 86.9 15.9247 86.3882 15.9247H85.2623V16.2329H92.5295V15.9247H91.1989C90.4824 15.9247 90.2777 14.7945 90.2777 14.7945V9.76025H92.1201C94.0047 13.4801 96.6238 15.9247 97.545 16.1301C98.4662 16.3356 101.946 16.2329 101.946 16.2329V15.9247C101.946 15.9247 100.82 16.1301 100.411 15.7192C100.001 15.3082 94.4743 9.24655 94.8837 8.73285C94.8837 8.73285 97.0291 7.22782 97.545 5.75342C97.869 4.82751 97.852 4.21234 97.6473 3.28769C97.4426 2.36303 95.5597 0.614817 94.3719 0.616456C93.1842 0.618094 84.9552 0.616456 84.9552 0.616456ZM90.4824 1.74491C90.4824 1.74491 90.3801 7.80821 90.4824 8.21751C90.5848 8.62682 93.1437 8.73121 93.9625 7.90929C94.7813 7.08737 94.679 5.13532 94.4743 4.41614C94.2696 3.69696 93.6554 1.93737 92.2225 1.73189C90.7895 1.52641 90.4824 1.74491 90.4824 1.74491Z" fill="white"/>
<path d="M84.9553 0.821885H84.8529V0.924625H84.9553V0.821885ZM84.9553 0.616432V0.513692L84.8529 0.513672V0.616432H84.9553ZM87.1047 14.7945L87.2054 14.8129L87.2071 14.8038V14.7945H87.1047ZM85.2623 15.9246V15.8219H85.16V15.9246H85.2623ZM85.2623 16.2328H85.16V16.3356H85.2623V16.2328ZM92.5296 16.2328V16.3356H92.6319V16.2328H92.5296ZM92.5296 15.9246H92.6319V15.8219H92.5296V15.9246ZM90.2778 14.7945H90.1754V14.8038L90.177 14.8129L90.2778 14.7945ZM90.2778 9.76023V9.65749H90.1754V9.76023H90.2778ZM92.1202 9.76023L92.2115 9.71366L92.183 9.65749H92.1202V9.76023ZM101.946 16.2328L101.949 16.3355L102.049 16.3326V16.2328H101.946ZM101.946 15.9246H102.049V15.8015L101.928 15.8236L101.946 15.9246ZM94.8838 8.73283L94.8252 8.64862L94.8131 8.65711L94.8039 8.66866L94.8838 8.73283ZM90.4825 1.74489L90.4233 1.66107L90.3809 1.69115L90.3801 1.74315L90.4825 1.74489ZM85.0576 0.821885V0.616432H84.8529V0.821885H85.0576ZM86.2859 0.719145H84.9553V0.924625H86.2859V0.719145ZM87.1047 1.74654C87.2071 1.74654 87.2071 1.7465 87.2071 1.74644C87.2071 1.74642 87.2071 1.74649 87.2071 1.74644C87.2071 1.74636 87.2071 1.74613 87.2071 1.74602C87.2071 1.74578 87.2071 1.74549 87.2071 1.74515C87.2071 1.74446 87.2071 1.74355 87.2071 1.74242C87.2071 1.74016 87.2069 1.73704 87.2069 1.73312C87.2067 1.72527 87.2061 1.71418 87.2052 1.7003C87.2036 1.67259 87.2001 1.63358 87.1932 1.58701C87.1795 1.49438 87.152 1.36913 87.0959 1.24249C87.0398 1.11575 86.9535 0.984162 86.8208 0.884172C86.6867 0.78323 86.5113 0.719145 86.2859 0.719145V0.924625C86.4699 0.924625 86.6015 0.976122 86.6978 1.04856C86.7954 1.12194 86.8626 1.22152 86.9088 1.32594C86.9551 1.43046 86.9788 1.53638 86.9907 1.61712C86.9966 1.65723 86.9995 1.69047 87.0009 1.71332C87.0018 1.72473 87.002 1.73351 87.0022 1.7392C87.0024 1.74205 87.0024 1.74412 87.0024 1.74536C87.0024 1.74599 87.0024 1.7464 87.0024 1.7466C87.0024 1.74661 87.0024 1.7467 87.0024 1.7466C87.0024 1.74656 87.0024 1.74654 87.1047 1.74654ZM87.2071 14.7945V1.74644L87.0024 1.7466V14.7945H87.2071ZM86.3882 16.0274C86.5573 16.0274 86.692 15.9332 86.7936 15.8152C86.8951 15.6972 86.9737 15.5443 87.0331 15.3985C87.0931 15.2515 87.1361 15.1054 87.1639 14.9967C87.1778 14.9422 87.1883 14.8967 87.195 14.8646C87.1985 14.8485 87.2009 14.8358 87.2028 14.827C87.2036 14.8226 87.2042 14.8192 87.2046 14.8168C87.2048 14.8156 87.205 14.8147 87.2052 14.814C87.2052 14.8137 87.2052 14.8134 87.2054 14.8133C87.2054 14.8131 87.2054 14.8129 87.2054 14.8129C87.2054 14.8128 87.2054 14.8129 87.2054 14.8129C87.2054 14.8128 87.2054 14.8129 87.1047 14.7945C87.004 14.7761 87.004 14.7761 87.004 14.7761C87.004 14.7762 87.004 14.7764 87.004 14.7766C87.0038 14.777 87.0038 14.7777 87.0036 14.7786C87.0032 14.7805 87.0026 14.7835 87.002 14.7873C87.0003 14.7951 86.9981 14.8067 86.9948 14.8215C86.9885 14.8513 86.9788 14.894 86.9655 14.9455C86.9391 15.0486 86.899 15.1851 86.8437 15.3207C86.788 15.4573 86.7195 15.587 86.6386 15.6809C86.5579 15.7747 86.475 15.8219 86.3882 15.8219V16.0274ZM85.2623 16.0274H86.3882V15.8219H85.2623V16.0274ZM85.3647 16.2328V15.9246H85.16V16.2328H85.3647ZM92.5296 16.1301H85.2623V16.3356H92.5296V16.1301ZM92.4272 15.9246V16.2328H92.6319V15.9246H92.4272ZM91.199 16.0274H92.5296V15.8219H91.199V16.0274ZM90.2778 14.7945C90.177 14.8129 90.177 14.8128 90.177 14.8129C90.177 14.8128 90.177 14.8129 90.177 14.8129C90.177 14.8129 90.177 14.8132 90.177 14.8133C90.1772 14.8135 90.1772 14.8138 90.1772 14.8142C90.1774 14.8149 90.1777 14.8159 90.1779 14.8171C90.1783 14.8196 90.1791 14.8231 90.1799 14.8276C90.1817 14.8366 90.1844 14.8495 90.1881 14.8658C90.1955 14.8983 90.2067 14.9444 90.2225 14.9995C90.254 15.1093 90.3042 15.2569 90.3781 15.4055C90.5226 15.6955 90.7787 16.0274 91.199 16.0274V15.8219C90.9027 15.8219 90.6982 15.5887 90.5613 15.3136C90.4945 15.1797 90.4485 15.0447 90.4192 14.9426C90.4047 14.8918 90.3944 14.8496 90.3877 14.8203C90.3844 14.8056 90.3822 14.7943 90.3805 14.7867C90.3797 14.783 90.3793 14.7801 90.3789 14.7783C90.3787 14.7775 90.3787 14.7768 90.3785 14.7764C90.3785 14.7762 90.3785 14.7761 90.3785 14.7761C90.3785 14.7761 90.3785 14.7761 90.2778 14.7945ZM90.1754 9.76023V14.7945H90.3801V9.76023H90.1754ZM92.1202 9.65749H90.2778V9.86296H92.1202V9.65749ZM97.5671 16.0298C97.3606 15.9837 97.0394 15.805 96.6367 15.4902C96.2375 15.1782 95.7691 14.7413 95.2692 14.1936C94.2698 13.0984 93.1492 11.5649 92.2115 9.71366L92.0289 9.80681C92.9756 11.6754 94.1069 13.2241 95.1184 14.3324C95.624 14.8866 96.1008 15.3318 96.5108 15.6523C96.9172 15.9698 97.2689 16.1737 97.5229 16.2304L97.5671 16.0298ZM101.946 16.2328C101.943 16.1301 101.943 16.1301 101.943 16.1301C101.943 16.1301 101.943 16.1302 101.943 16.1302C101.942 16.1302 101.942 16.1302 101.941 16.1302C101.939 16.1303 101.937 16.1303 101.933 16.1304C101.927 16.1306 101.917 16.1309 101.904 16.1312C101.879 16.1319 101.841 16.1329 101.792 16.1342C101.696 16.1366 101.556 16.1398 101.386 16.143C101.046 16.1494 100.583 16.1558 100.091 16.1558C99.5993 16.1558 99.0793 16.1494 98.6257 16.1302C98.1694 16.1109 97.7876 16.079 97.5671 16.0298L97.5229 16.2304C97.763 16.284 98.1618 16.3163 98.6171 16.3355C99.0748 16.3548 99.5979 16.3613 100.091 16.3613C100.585 16.3613 101.049 16.3548 101.39 16.3484C101.561 16.3452 101.7 16.342 101.797 16.3396C101.846 16.3384 101.884 16.3374 101.91 16.3367C101.923 16.3363 101.933 16.336 101.939 16.3358C101.943 16.3357 101.945 16.3357 101.947 16.3356C101.948 16.3356 101.948 16.3356 101.949 16.3356C101.949 16.3355 101.949 16.3355 101.949 16.3355C101.949 16.3355 101.949 16.3355 101.946 16.2328ZM101.844 15.9246V16.2328H102.049V15.9246H101.844ZM100.339 15.7918C100.46 15.9135 100.628 15.9839 100.8 16.0246C100.974 16.0656 101.161 16.0787 101.332 16.0787C101.504 16.0787 101.661 16.0655 101.776 16.0524C101.833 16.0458 101.88 16.0392 101.913 16.0342C101.929 16.0317 101.942 16.0296 101.95 16.0282C101.955 16.0274 101.958 16.0268 101.961 16.0264C101.962 16.0262 101.963 16.026 101.964 16.0259C101.964 16.0259 101.964 16.0258 101.964 16.0258C101.964 16.0258 101.964 16.0258 101.964 16.0258C101.964 16.0258 101.965 16.0257 101.965 16.0257C101.965 16.0257 101.965 16.0257 101.946 15.9246C101.928 15.8236 101.928 15.8236 101.928 15.8236C101.928 15.8236 101.928 15.8236 101.928 15.8236C101.928 15.8236 101.928 15.8236 101.927 15.8236C101.927 15.8237 101.926 15.8238 101.925 15.824C101.924 15.8243 101.921 15.8248 101.917 15.8255C101.909 15.8268 101.897 15.8288 101.882 15.8311C101.851 15.8357 101.807 15.842 101.752 15.8482C101.643 15.8608 101.493 15.8733 101.332 15.8733C101.17 15.8733 101 15.8607 100.847 15.8246C100.693 15.7883 100.567 15.7303 100.483 15.6465L100.339 15.7918ZM94.8039 8.66866C94.7458 8.74148 94.7554 8.83937 94.7747 8.91632C94.7955 9.00071 94.8385 9.10076 94.8963 9.21139C95.0125 9.43376 95.1998 9.71905 95.4342 10.0437C95.9036 10.6939 96.571 11.5151 97.2623 12.3311C98.6447 13.9628 100.131 15.5834 100.339 15.7918L100.483 15.6465C100.282 15.4439 98.7995 13.8282 97.4183 12.198C96.7278 11.383 96.0645 10.5667 95.6 9.92309C95.3673 9.60075 95.1867 9.32498 95.0776 9.11592C95.0226 9.01084 94.9884 8.9276 94.9732 8.86653C94.9562 8.79807 94.9706 8.78839 94.9636 8.79702L94.8039 8.66866ZM97.4484 5.71935C97.1993 6.43123 96.5505 7.16163 95.9511 7.72076C95.6535 7.99857 95.3716 8.23086 95.164 8.39368C95.0602 8.47507 94.9753 8.539 94.9163 8.58252C94.8868 8.60426 94.8639 8.6209 94.8483 8.63204C94.8406 8.63761 94.8348 8.64182 94.8307 8.64459C94.8289 8.64597 94.8275 8.64702 94.8264 8.6477C94.826 8.64803 94.8256 8.64827 94.8254 8.64844C94.8252 8.6485 94.8252 8.64858 94.8252 8.64862C94.8252 8.64862 94.8252 8.64862 94.8838 8.73283C94.9423 8.81705 94.9425 8.81703 94.9425 8.81701C94.9425 8.81699 94.9425 8.81705 94.9425 8.81701C94.9427 8.81695 94.9427 8.81679 94.9429 8.81668C94.9431 8.81648 94.9435 8.81617 94.9442 8.81578C94.9454 8.815 94.947 8.81385 94.9491 8.81235C94.9534 8.80935 94.9595 8.80491 94.9675 8.79912C94.9837 8.78749 95.0074 8.77035 95.0375 8.74805C95.0979 8.70351 95.1847 8.63833 95.2901 8.55558C95.501 8.39013 95.7876 8.15401 96.0905 7.87127C96.693 7.30929 97.3747 6.54996 97.6416 5.78744L97.4484 5.71935ZM97.5475 3.30994C97.649 3.76848 97.7024 4.14412 97.6922 4.51719C97.6818 4.88948 97.6077 5.26411 97.4484 5.71935L97.6416 5.78744C97.8062 5.31675 97.8856 4.92085 97.8967 4.5229C97.9078 4.12575 97.8504 3.73148 97.7473 3.26537L97.5475 3.30994ZM94.3722 0.719172C94.6461 0.718794 94.9697 0.820066 95.3094 0.994549C95.6475 1.16828 95.9941 1.41065 96.3118 1.68283C96.6295 1.95496 96.9159 2.25494 97.135 2.54237C97.3555 2.83197 97.501 3.10043 97.5475 3.30994L97.7473 3.26537C97.6914 3.01257 97.5247 2.71575 97.2975 2.41756C97.0689 2.11719 96.7718 1.80684 96.4447 1.52654C96.1176 1.2463 95.7579 0.994128 95.4027 0.811631C95.0488 0.629891 94.6917 0.513251 94.3718 0.513692L94.3722 0.719172ZM84.9553 0.616432C84.9553 0.719172 84.9553 0.719145 84.9553 0.719145C84.9555 0.719145 84.9555 0.719172 84.9557 0.719172C84.9559 0.719172 84.9563 0.719172 84.9567 0.719172C84.9577 0.719172 84.9591 0.719172 84.9612 0.719172C84.9651 0.719174 84.971 0.719174 84.9788 0.719176C84.9946 0.719178 85.0177 0.719182 85.048 0.719188C85.1086 0.719201 85.1974 0.719217 85.3113 0.719238C85.5385 0.719281 85.8646 0.719338 86.2597 0.719402C87.0497 0.719529 88.1154 0.719683 89.2182 0.719786C91.4239 0.71999 93.7781 0.71999 94.3722 0.719172L94.3718 0.513692C93.7781 0.51451 91.4239 0.51451 89.2182 0.514307C88.1154 0.514204 87.0497 0.51405 86.2597 0.513923C85.8646 0.513859 85.5385 0.513801 85.3113 0.513758C85.1974 0.513738 85.1086 0.513721 85.048 0.513709C85.0177 0.513703 84.9946 0.513699 84.979 0.513697C84.971 0.513694 84.9653 0.513694 84.9612 0.513692C84.9594 0.513692 84.9577 0.513692 84.9567 0.513692C84.9563 0.513692 84.9559 0.513692 84.9557 0.513692C84.9555 0.513692 84.9555 0.513692 84.9555 0.513692C84.9553 0.513692 84.9553 0.513692 84.9553 0.616432ZM90.5818 8.19248C90.5779 8.17674 90.5725 8.13757 90.5676 8.06985C90.5629 8.00485 90.5588 7.92022 90.5553 7.81834C90.5484 7.61471 90.5441 7.34535 90.5416 7.03269C90.5369 6.40752 90.54 5.61188 90.5463 4.82853C90.5529 4.04531 90.5625 3.27482 90.5705 2.70011C90.5744 2.41275 90.5781 2.17438 90.5805 2.00783C90.582 1.92456 90.583 1.85925 90.5836 1.81476C90.584 1.79252 90.5844 1.77548 90.5846 1.76401C90.5846 1.75827 90.5846 1.75392 90.5848 1.75101C90.5848 1.74955 90.5848 1.74846 90.5848 1.74773C90.5848 1.74736 90.5848 1.74708 90.5848 1.7469C90.5848 1.74681 90.5848 1.74695 90.5848 1.7469C90.5848 1.74686 90.5848 1.74663 90.4825 1.74489C90.3801 1.74315 90.3801 1.7431 90.3801 1.74315C90.3801 1.74319 90.3801 1.74333 90.3801 1.74343C90.3801 1.74361 90.3801 1.74389 90.3801 1.74426C90.3801 1.745 90.3801 1.7461 90.3801 1.74756C90.3799 1.75048 90.3799 1.75484 90.3799 1.76058C90.3797 1.77208 90.3793 1.78914 90.3791 1.8114C90.3783 1.85593 90.3772 1.92129 90.376 2.00461C90.3734 2.17125 90.3697 2.40975 90.3658 2.69724C90.3578 3.27219 90.3482 4.04311 90.3418 4.82687C90.3353 5.61051 90.3322 6.40744 90.3369 7.03425C90.3394 7.34759 90.3437 7.61907 90.3508 7.82537C90.3543 7.92846 90.3584 8.01605 90.3635 8.08485C90.3682 8.15091 90.3744 8.20707 90.3832 8.24251L90.5818 8.19248ZM93.8901 7.83663C93.7034 8.02409 93.4094 8.16546 93.0604 8.26273C92.7132 8.35949 92.3218 8.40988 91.9505 8.42241C91.5787 8.43494 91.2319 8.40942 90.9746 8.3569C90.8454 8.33054 90.7435 8.2983 90.6733 8.26339C90.5969 8.22552 90.583 8.19706 90.5818 8.19248L90.3832 8.24251C90.4075 8.34024 90.496 8.40457 90.5824 8.44756C90.6749 8.49348 90.7961 8.53012 90.9339 8.55827C91.2106 8.61476 91.574 8.64071 91.9572 8.62777C92.3408 8.61482 92.749 8.56279 93.1151 8.46073C93.4794 8.3592 93.8123 8.2054 94.035 7.98192L93.8901 7.83663ZM94.3759 4.44435C94.4743 4.79031 94.5507 5.44569 94.5001 6.11644C94.4496 6.79098 94.2727 7.45271 93.8901 7.83663L94.035 7.98192C94.4713 7.5439 94.6526 6.81866 94.7044 6.13191C94.7562 5.44133 94.6791 4.76111 94.5728 4.3879L94.3759 4.44435ZM92.208 1.83358C92.8829 1.93034 93.3726 2.39377 93.723 2.9372C94.0731 3.48001 94.2745 4.08827 94.3759 4.44435L94.5728 4.3879C94.4694 4.0248 94.2614 3.39367 93.895 2.82552C93.529 2.25798 92.9951 1.73887 92.2371 1.63016L92.208 1.83358ZM90.4825 1.74489C90.5416 1.8287 90.5416 1.82878 90.5414 1.82886C90.5414 1.82888 90.5412 1.82895 90.5412 1.829C90.541 1.82909 90.541 1.82918 90.5408 1.82927C90.5406 1.82945 90.5404 1.82961 90.5402 1.82975C90.5398 1.83004 90.5394 1.83026 90.5392 1.83044C90.5386 1.83078 90.5384 1.8309 90.5386 1.83081C90.5388 1.83063 90.5406 1.82961 90.5439 1.82794C90.5506 1.8246 90.5639 1.81861 90.5854 1.81134C90.6286 1.79678 90.7046 1.77722 90.8266 1.76342C91.0712 1.73576 91.497 1.73161 92.208 1.83358L92.2371 1.63016C91.515 1.52665 91.0708 1.52901 90.8037 1.55923C90.6698 1.57436 90.5795 1.59659 90.5201 1.61658C90.4907 1.62658 90.4688 1.63606 90.453 1.64386C90.4452 1.64776 90.4389 1.65124 90.434 1.65416C90.4315 1.65562 90.4294 1.65694 90.4276 1.6581C90.4268 1.65868 90.426 1.65922 90.4251 1.65971C90.4249 1.65996 90.4245 1.6602 90.4241 1.66043C90.4241 1.66054 90.4239 1.66065 90.4237 1.66076C90.4237 1.66081 90.4235 1.66089 90.4235 1.66092C90.4233 1.661 90.4233 1.66107 90.4825 1.74489Z" fill="white"/>
<path d="M61.6182 0.410924V0.205444H68.6807V0.410924H67.6572C67.2477 0.410924 66.7359 1.54106 66.7359 1.54106V11.4041C66.7359 11.4041 67.043 14.4863 69.4996 14.7945H71.9561C74.2079 14.0753 74.2079 11.1986 74.2079 11.1986V1.33558C74.2079 1.33558 74.0032 0.410924 73.3891 0.410924H72.0584V0.205444H78.3021V0.410924H77.0739C76.6645 0.410924 76.3574 1.33558 76.3574 1.33558C76.3574 1.33558 76.255 10.5822 76.1527 11.1986C76.0503 11.815 75.2315 14.2808 73.7985 15.2054C72.3655 16.1301 71.5467 16.1301 71.5467 16.1301C71.5467 16.1301 68.6807 16.2328 68.3736 16.1301C68.0666 16.0274 67.2477 16.1301 66.0195 15.2054C64.7912 14.2808 63.6653 12.637 63.5629 11.1986C63.4606 9.76024 63.4606 1.33558 63.4606 1.33558C63.4606 1.33558 63.2559 0.410924 62.7441 0.410924H61.6182Z" fill="white" stroke="white"/>
<mask id="mask0_199_253" style="mask-type:luminance" maskUnits="userSpaceOnUse" x="36" y="22" width="73" height="8">
<path d="M108.906 22.1918H36.6433V30H108.906V22.1918Z" fill="white"/>
</mask>
<g mask="url(#mask0_199_253)">
<path d="M36.7634 29.7945V22.3225H39.5549C40.1268 22.3225 40.6065 22.4223 40.9942 22.6216C41.3844 22.8212 41.6788 23.1008 41.8775 23.4608C42.0786 23.8184 42.1793 24.2355 42.1793 24.7122C42.1793 25.1914 42.0773 25.6073 41.8738 25.9601C41.6728 26.3102 41.376 26.5814 40.9833 26.7736C40.5907 26.9634 40.1086 27.0581 39.5367 27.0581H37.5485V25.9344H39.3549C39.6894 25.9344 39.9633 25.8884 40.1764 25.7959C40.3897 25.701 40.5471 25.5635 40.6488 25.3835C40.753 25.2012 40.8052 24.9775 40.8052 24.7122C40.8052 24.4471 40.753 24.2209 40.6488 24.0337C40.5447 23.8438 40.386 23.7004 40.1727 23.6032C39.9596 23.5034 39.6845 23.4536 39.3477 23.4536H38.1119V29.7945H36.7634ZM40.6089 26.4088L42.4517 29.7945H40.9469L39.1369 26.4088H40.6089ZM48.0264 29.7945V22.3225H52.8681V23.4571H49.3749V25.4856H52.6173V26.6205H49.3749V28.6599H52.8971V29.7945H48.0264ZM62.8953 24.3766C62.8615 24.0579 62.7184 23.8099 62.4664 23.6324C62.2168 23.4547 61.8922 23.3659 61.4924 23.3659C61.2113 23.3659 60.9701 23.4086 60.7689 23.4937C60.5679 23.5788 60.4139 23.6942 60.3073 23.8403C60.2006 23.9862 60.1462 24.1529 60.1437 24.3401C60.1437 24.4958 60.1789 24.6308 60.2491 24.7451C60.3218 24.8593 60.4201 24.9567 60.5435 25.037C60.6672 25.1147 60.8041 25.1805 60.9544 25.2339C61.1046 25.2875 61.2561 25.3325 61.4086 25.3689L62.1065 25.5442C62.3876 25.6097 62.6578 25.6985 62.9172 25.8105C63.1788 25.9223 63.4128 26.0634 63.6187 26.2336C63.8271 26.4039 63.9919 26.6094 64.1131 26.8502C64.2341 27.091 64.2947 27.3731 64.2947 27.6966C64.2947 28.1344 64.1833 28.5199 63.9604 28.8532C63.7374 29.184 63.415 29.4429 62.9935 29.6303C62.5743 29.8153 62.0666 29.9075 61.4705 29.9075C60.8913 29.9075 60.3886 29.8175 59.9621 29.6375C59.538 29.4577 59.2059 29.1949 58.966 28.8495C58.7286 28.5041 58.6002 28.0835 58.5807 27.5873H59.9075C59.9269 27.8474 60.0068 28.064 60.1474 28.2366C60.288 28.4094 60.4709 28.5382 60.6962 28.6233C60.9241 28.7086 61.1785 28.7511 61.4596 28.7511C61.7528 28.7511 62.0097 28.7073 62.2301 28.6198C62.4531 28.5298 62.6275 28.4057 62.7536 28.2477C62.8795 28.087 62.9438 27.8998 62.9462 27.6857C62.9438 27.4911 62.8869 27.3306 62.7753 27.204C62.6639 27.0752 62.5075 26.9681 62.3065 26.8831C62.1077 26.7955 61.8752 26.7177 61.6086 26.6497L60.7617 26.4306C60.1486 26.2726 59.6641 26.033 59.3077 25.7118C58.9539 25.3884 58.7771 24.9592 58.7771 24.4241C58.7771 23.9838 58.8958 23.5983 59.1333 23.2675C59.3732 22.9366 59.6991 22.68 60.111 22.4977C60.5231 22.3128 60.9894 22.2203 61.5104 22.2203C62.0387 22.2203 62.5016 22.3128 62.8989 22.4977C63.2987 22.68 63.6126 22.9342 63.8404 23.2603C64.0682 23.5837 64.1858 23.9558 64.1929 24.3766H62.8953ZM70.1029 29.7945V22.3225H74.9446V23.4571H71.4514V25.4856H74.6936V26.6205H71.4514V28.6599H74.9736V29.7945H70.1029ZM80.9262 29.7945V22.3225H83.7177C84.2896 22.3225 84.7695 22.4223 85.1572 22.6216C85.5472 22.8212 85.8418 23.1008 86.0403 23.4608C86.2416 23.8184 86.3421 24.2355 86.3421 24.7122C86.3421 25.1914 86.2403 25.6073 86.0368 25.9601C85.8356 26.3102 85.5388 26.5814 85.1462 26.7736C84.7537 26.9634 84.2714 27.0581 83.6997 27.0581H81.7113V25.9344H83.5179C83.8522 25.9344 84.1261 25.8884 84.3394 25.7959C84.5525 25.701 84.7101 25.5635 84.8119 25.3835C84.9161 25.2012 84.9681 24.9775 84.9681 24.7122C84.9681 24.4471 84.9161 24.2209 84.8119 24.0337C84.7077 23.8438 84.549 23.7004 84.3357 23.6032C84.1224 23.5034 83.8475 23.4536 83.5105 23.4536H82.2747V29.7945H80.9262ZM84.7719 26.4088L86.6147 29.7945H85.1099L83.2999 26.4088H84.7719ZM92.9954 22.3225L94.9328 28.2037H95.0092L96.9429 22.3225H98.4258L95.8014 29.7945H94.1367L91.516 22.3225H92.9954ZM104.012 29.7945V22.3225H108.854V23.4571H105.361V25.4856H108.603V26.6205H105.361V28.6599H108.883V29.7945H104.012Z" fill="white"/>
</g>
<path d="M1.43298 0.719195H0.204712V0.616455H7.47197V0.719195H6.34605L5.52721 1.64385V7.39728H6.03899L11.3615 1.23289L10.9521 0.719195H10.3379V0.616455H16.1722V0.719195H14.7392L14.0227 1.02741L8.18846 6.88358C8.18846 6.88358 10.1332 9.64175 11.3615 11.4041C12.5898 13.1665 13.4086 14.3836 15.7628 15.6165L17.5028 15.8219V16.1302C17.5028 16.1302 14.6389 16.5797 12.8968 16.1302C11.2513 15.7056 9.41672 13.9726 8.61172 12.7397C7.80673 11.5069 6.03899 8.42467 6.03899 8.42467H5.52721V14.5891L6.34605 15.8219H7.77903V16.1302H0.409423V15.8219H1.43298L2.25183 14.5891V1.64385L1.43298 0.719195Z" fill="white"/>
<path d="M5.52721 8.42467V14.5891L6.34605 15.8219H7.77903V16.1302H0.409423V15.8219H1.43298L2.25183 14.5891V1.64385L1.43298 0.719195H0.204712V0.616455H7.47197V0.719195H6.34605L5.52721 1.64385V7.39728M5.52721 8.42467H6.03899C6.03899 8.42467 7.80673 11.5069 8.61172 12.7397C9.41672 13.9726 11.2513 15.7056 12.8968 16.1302C14.6389 16.5797 17.5028 16.1302 17.5028 16.1302V15.8219M5.52721 8.42467V7.39728M5.52721 7.39728H6.03899L11.3615 1.23289L10.9521 0.719195H10.3379V0.616455H16.1722V0.719195H14.7392L14.0227 1.02741L8.18846 6.88358C8.18846 6.88358 10.1332 9.64175 11.3615 11.4041C12.5898 13.1665 13.4086 14.3836 15.7628 15.6165M17.5028 15.8219C17.5028 15.8219 16.9414 15.8219 16.5816 15.8219C16.5816 15.8219 17.0934 16.6439 15.7628 15.6165M17.5028 15.8219L15.7628 15.6165" stroke="white"/>
<path d="M23.1324 0.616455V0.821935H24.0536C24.7701 0.821935 24.8725 1.64385 24.8725 1.64385V14.7945C24.8725 14.7945 24.5654 15.9247 24.2584 15.9247H23.1324V16.1302H34.1869V12.637H34.0845C34.0845 12.637 34.0538 13.1461 33.9822 13.4589C33.8235 14.1507 32.7539 14.7945 32.7539 14.7945C32.7539 14.7945 30.4114 15.5411 29.2738 14.7945C28.848 14.5151 28.3526 13.8699 28.3526 13.8699V8.32193H31.935C31.935 8.32193 32.7451 8.60075 32.9586 9.04111C33.151 9.43795 33.1633 10.1713 33.1633 10.1713H33.368V6.36988C33.368 6.36988 33.1633 6.88358 32.7539 7.08906C32.3445 7.29454 28.3526 7.08906 28.3526 7.08906V1.84933H32.2421C32.2421 1.84933 33.0024 2.28953 33.1633 2.77399C33.2771 3.11656 33.2657 3.69865 33.2657 3.69865H33.5727V0.616455H23.1324Z" fill="white" stroke="white"/>
<path d="M42.0682 0.722457C41.7611 0.722457 41.147 0.308848 41.147 0.308848L40.9423 0.205444V4.03135H41.147V2.6871C41.147 2.6871 41.147 1.96329 42.0682 1.96329H46.06V14.7852C46.06 14.7852 46.06 15.9226 45.5483 15.9226H44.1153V16.2328H51.6896V15.9226H50.359C49.5401 15.9226 49.5401 14.7852 49.5401 14.7852L49.4378 1.96329H53.8391C54.4532 1.96329 54.6579 2.6871 54.6579 2.6871V4.03135H54.8626V0.308848C54.8626 0.308848 54.1461 0.722457 53.8391 0.722457H42.0682Z" fill="white" stroke="white"/>
<path d="M129.173 0.513664V0.205444H136.44V0.513664H135.314C134.598 0.513664 134.598 1.43832 134.598 1.43832V6.98627H141.456V1.43832C141.456 1.43832 141.353 0.513664 140.739 0.513664H139.408V0.205444H146.778V0.513664H145.55C144.731 0.513664 144.833 1.43832 144.833 1.43832V14.7945C144.833 14.7945 144.833 15.6164 145.754 15.6164H147.085V15.9246H139.715V15.6164H140.739C141.353 15.6164 141.456 14.7945 141.456 14.7945V8.1164H134.598V14.7945C134.598 14.7945 134.598 15.6164 135.519 15.6164H136.85V15.9246H129.173V15.6164H130.503C131.015 15.6164 131.015 14.7945 131.015 14.7945L131.22 1.43832C131.22 1.43832 131.322 0.513664 130.503 0.513664H129.173Z" fill="white" stroke="white"/>
</g>
<defs>
<clipPath id="clip0_199_253">
<rect width="147.188" height="30" fill="white"/>
</clipPath>
</defs>
</svg>
